<svg width="1400" height="1000" xmlns="http://www.w3.org/2000/svg"><g fill="none" fill-rule="evenodd"><path fill="#FEFEFE" d="M700 1000h699V750H700zM175 750h175V500H175zM44 500h44V250H44zM10.937 250h10.94V0h-10.94zm699.969 0h10.94V0h-10.94zm-349.985 0h10.94V0h-10.94zm699.969 0h10.94V0h-10.94zM394 500h44V250h-44zM98.433 250h10.94V0h-10.94zm699.969 0h10.94V0h-10.94zm-349.985 0h10.94V0h-10.94zm699.969 0h10.94V0h-10.94zM744 500h44V250h-44zM185.93 250h10.94V0h-10.94zm699.968 0h10.94V0h-10.94zm-349.985 0h10.94V0h-10.94zm699.969 0h10.94V0h-10.94zM1094 500h44V250h-44zM273.425 250h10.94V0h-10.94zm699.969 0h10.94V0h-10.94zm-349.984 0h10.94V0h-10.94zm699.968 0h10.94V0h-10.94zM525 750h175V500H525zM131 500h44V250h-44zM32.811 250h10.94V0h-10.94zm699.969 0h10.94V0h-10.94zm-349.985 0h10.94V0h-10.94zm699.969 0h10.94V0h-10.94zM481 500h44V250h-44zM120.307 250h10.94V0h-10.94zm699.969 0h10.94V0h-10.94zm-349.985 0h10.94V0h-10.94zm699.969 0h10.94V0h-10.94zM831 500h44V250h-44zM207.803 250h10.94V0h-10.94zm699.969 0h10.94V0h-10.94zm-349.985 0h10.94V0h-10.94zm699.969 0h10.94V0h-10.94zM1181 500h44V250h-44zM295.3 250h10.94V0H295.3zm699.968 0h10.94V0h-10.94zm-349.985 0h10.94V0h-10.94zm699.969 0h10.94V0h-10.94zM875 750h175V500H875zM219 500h44V250h-44zM54.685 250h10.94V0h-10.94zm699.969 0h10.94V0h-10.94zm-349.984 0h10.94V0h-10.94zm699.968 0h10.94V0h-10.94zM569 500h44V250h-44zM142.181 250h10.94V0h-10.94zm699.969 0h10.94V0h-10.94zm-349.985 0h10.94V0h-10.94zm699.969 0h10.94V0h-10.94zM919 500h44V250h-44zM229.677 250h10.94V0h-10.94zm699.969 0h10.94V0h-10.94zm-349.985 0h10.94V0h-10.94zm699.969 0h10.94V0h-10.94zM1269 500h44V250h-44zM317.173 250h10.94V0h-10.94zm699.969 0h10.94V0h-10.94zm-349.985 0h10.94V0h-10.94zm699.969 0h10.94V0h-10.94zM1225 750h175V500h-175zM306 500h44V250h-44zM76.56 250H87.5V0H76.56zm699.968 0h10.94V0h-10.94zm-349.985 0h10.94V0h-10.94zm699.969 0h10.94V0h-10.94zM656 500h44V250h-44zM164.055 250h10.94V0h-10.94zm699.969 0h10.94V0h-10.94zm-349.984 0h10.94V0h-10.94zm699.968 0h10.94V0h-10.94zM1006 500h44V250h-44zM251.551 250h10.94V0h-10.94zm699.969 0h10.94V0h-10.94zm-349.985 0h10.94V0h-10.94zm699.969 0h10.94V0h-10.94zM1356 500h44V250h-44zM339.047 250h10.94V0h-10.94zm699.969 0h10.94V0h-10.94zm-349.985 0h10.94V0h-10.94zM1389 250h10.94V0H1389z"/><path fill="#000" d="M0 1000h700V750H0zm0-250h175V500H0zm0-250h44V250H0zm0-250h10.94V0H0zm699.969 0h10.94V0h-10.94zm-349.985 0h10.94V0h-10.94zm699.969 0h10.94V0h-10.94zM350 500h44V250h-44zM87.496 250h10.94V0h-10.94zm699.969 0h10.94V0h-10.94zm-349.985 0h10.94V0h-10.94zm699.969 0h10.94V0h-10.94zM700 500h44V250h-44zM174.992 250h10.94V0h-10.94zm699.968 0h10.94V0h-10.94zm-349.984 0h10.94V0h-10.94zm699.969 0h10.94V0h-10.94zM1050 500h44V250h-44zM262.488 250h10.94V0h-10.94zm699.969 0h10.94V0h-10.94zm-349.985 0h10.94V0h-10.94zm699.968 0h10.94V0h-10.94zM350 750h175V500H350zM88 500h43V250H88zM21.874 250h10.94V0h-10.94zm699.969 0h10.94V0h-10.94zm-349.985 0h10.94V0h-10.94zm699.969 0h10.94V0h-10.94zM438 500h43V250h-43zM109.37 250h10.94V0h-10.94zm699.969 0h10.94V0h-10.94zm-349.985 0h10.94V0h-10.94zm699.969 0h10.94V0h-10.94zM788 500h43V250h-43zM196.866 250h10.94V0h-10.94zm699.969 0h10.94V0h-10.94zm-349.985 0h10.94V0h-10.94zm699.969 0h10.94V0h-10.94zM1138 500h43V250h-43zM284.362 250h10.94V0h-10.94zm699.968 0h10.94V0h-10.94zm-349.984 0h10.94V0h-10.94zm699.969 0h10.94V0h-10.94zM700 750h175V500H700zM175 500h44V250h-44zM43.748 250h10.94V0h-10.94zm699.969 0h10.94V0h-10.94zm-349.985 0h10.94V0h-10.94zm699.968 0h10.94V0h-10.94zM525 500h44V250h-44zM131.244 250h10.94V0h-10.94zm699.969 0h10.94V0h-10.94zm-349.985 0h10.94V0h-10.94zm699.969 0h10.94V0h-10.94zM875 500h44V250h-44zM218.74 250h10.94V0h-10.94zm699.969 0h10.94V0h-10.94zm-349.985 0h10.94V0h-10.94zm699.969 0h10.94V0h-10.94zM1225 500h44V250h-44zM306.236 250h10.94V0h-10.94zm699.969 0h10.94V0h-10.94zm-349.985 0h10.94V0h-10.94zm699.969 0h10.94V0h-10.94zM1050 750h175V500h-175zM263 500h43V250h-43zM65.622 250h10.94V0h-10.94zm699.968 0h10.94V0h-10.94zm-349.984 0h10.94V0h-10.94zm699.969 0h10.94V0h-10.94zM613 500h43V250h-43zM153.118 250h10.94V0h-10.94zm699.969 0h10.94V0h-10.94zm-349.985 0h10.94V0h-10.94zm699.968 0h10.94V0h-10.94zM963 500h43V250h-43zM240.614 250h10.94V0h-10.94zm699.969 0h10.94V0h-10.94zm-349.985 0h10.94V0h-10.94zm699.969 0h10.94V0h-10.94zM1313 500h43V250h-43zM328.11 250h10.94V0h-10.94zm699.969 0h10.94V0h-10.94zm-349.985 0h10.94V0h-10.94zm699.969 0h10.94V0h-10.94z"/></g></svg>